#!OML:ASF E:\acrobat2\Project_11_07_03\Capture day 1\Session 1\Acrobat.ASF
:FULLY-SPECIFIED
:DEGREES
919
root 5.23979 27.881 -19.3941 7.50532 1.29611 0.957644
lowerback 2.58189 0.788983 2.71098
upperback 2.15236 1.09878 -0.0126814
thorax 0.811801 0.581808 -1.55149
lowerneck 1.88593 0.784424 -0.619465
upperneck -2.16903 0.971414 -2.37069
head -0.967039 0.521145 -0.637511
rclavicle 4.57205e-015 -7.95139e-015
rhumerus -44.6763 -0.143778 -75.611
rradius 53.9746
rwrist 13.3798
rhand -26.2174 -12.4803
rfingers 7.12502
rthumb 0.335756 -42.4597
lclavicle 4.57205e-015 -7.95139e-015
lhumerus -37.24 -2.29863 70.6079
lradius 56.7701
lwrist 20.5712
lhand -27.498 -15.6401
lfingers 7.12502
lthumb -0.901052 14.3377
rfemur -23.9503 -5.9713 15.0976
rtibia 36.0712
rfoot -15.1569 -5.09193
rtoes -20.2519
lfemur -11.6768 -3.88068 -22.4273
ltibia 25.9035
lfoot -17.0027 -16.1567
ltoes 30.272
920
root 5.22274 27.8876 -19.4415 7.50342 1.56864 1.08061
lowerback 2.53676 0.723173 2.55641
upperback 2.16391 1.00723 -0.0546638
thorax 0.842375 0.535056 -1.50568
lowerneck 2.01412 0.754497 -0.474468
upperneck -2.56034 0.9261 -2.35236
head -1.11149 0.501738 -0.658951
rclavicle 4.17448e-015 1.55052e-014
rhumerus -44.7849 -0.403929 -75.6595
rradius 53.896
rwrist 13.2057
rhand -26.2022 -12.4416
rfingers 7.12502
rthumb 0.350481 -42.421
lclavicle 4.17448e-015 1.55052e-014
lhumerus -36.8474 -2.2458 70.563
lradius 56.4363
lwrist 21.9406
lhand -26.3661 -14.6683
lfingers 7.12502
lthumb 0.192179 15.3113
rfemur -23.4334 -5.70345 15.2028
rtibia 34.2344
rfoot -14.5749 -5.5248
rtoes -19.9318
lfemur -11.3926 -4.02774 -22.3885
ltibia 25.7223
lfoot -16.6322 -16.5113
ltoes 30.8043
921
root 5.20489 27.8907 -19.4873 7.46771 1.90808 1.23686
lowerback 2.47995 0.656834 2.38944
upperback 2.1861 0.914612 -0.108302
thorax 0.890698 0.487966 -1.46468
lowerneck 2.15922 0.727501 -0.401462
upperneck -2.94333 0.885262 -2.26811
head -1.25746 0.483831 -0.648088
rclavicle -8.94531e-016 1.11319e-014
rhumerus -44.9216 -0.696591 -75.6979
rradius 53.8149
rwrist 13.0115
rhand -26.0895 -12.4535
rfingers 7.12502
rthumb 0.459322 -42.4328
lclavicle -8.94531e-016 1.11319e-014
lhumerus -36.4164 -2.20578 70.5079
lradius 56.1442
lwrist 23.5217
lhand -25.2832 -13.8107
lfingers 7.12502
lthumb 1.23807 16.1654
rfemur -22.7917 -5.3481 15.2518
rtibia 32.5305
rfoot -13.9298 -5.94134
rtoes -19.7135
lfemur -11.1555 -4.20289 -22.3637
ltibia 25.6871
lfoot -16.1717 -16.9206
ltoes 31.3773
922
root 5.18671 27.89 -19.5323 7.40157 2.29957 1.40622
lowerback 2.42617 0.600012 2.23802
upperback 2.20795 0.835362 -0.171631
thorax 0.938328 0.447736 -1.44272
lowerneck 2.3272 0.700197 -0.394196
upperneck -3.29577 0.844859 -2.13084
head -1.39889 0.465367 -0.60953
rclavicle -2.15681e-014 7.95139e-015
rhumerus -45.1128 -1.03621 -75.7189
rradius 53.7553
rwrist 12.7798
rhand -25.839 -12.565
rfingers 7.12502
rthumb 0.701264 -42.5436
lclavicle -2.15681e-014 7.95139e-015
lhumerus -35.9586 -2.1736 70.4436
lradius 55.9043
lwrist 25.264
lhand -24.2394 -13.1238
lfingers 7.12502
lthumb 2.24617 16.8441
rfemur -22.0883 -4.90096 15.2708
rtibia 31.1161
rfoot -13.3069 -6.24928
rtoes -19.507
lfemur -10.989 -4.3767 -22.3291
ltibia 25.8254
lfoot -15.6206 -17.3823
ltoes 31.9864
923
root 5.16883 27.8856 -19.5777 7.30968 2.72284 1.57247
lowerback 2.39501 0.556587 2.12754
upperback 2.2265 0.775452 -0.242937
thorax 0.971662 0.417515 -1.45256
lowerneck 2.49619 0.667222 -0.43305
upperneck -3.61637 0.797787 -1.96366
head -1.53143 0.442878 -0.553277
rclavicle -1.28216e-014 3.97569e-015
rhumerus -45.3387 -1.42562 -75.7212
rradius 53.7042
rwrist 12.4957
rhand -25.4373 -12.7443
rfingers 7.12502
rthumb 1.0892 -42.7213
lclavicle -1.28216e-014 3.97569e-015
lhumerus -35.4785 -2.11718 70.3678
lradius 55.7276
lwrist 27.0817
lhand -23.2303 -12.6377
lfingers 7.12502
lthumb 3.22066 17.3177
rfemur -21.4021 -4.3629 15.2847
rtibia 30.1069
rfoot -12.7872 -6.46884
rtoes -19.3866
lfemur -10.9196 -4.51964 -22.2669
ltibia 26.1628
lfoot -14.9116 -17.9243
ltoes 32.9055
924
root 5.15169 27.8773 -19.6247 7.19875 3.16147 1.7214
lowerback 2.40455 0.525901 2.07148
upperback 2.23942 0.734395 -0.31386
thorax 0.978074 0.397065 -1.4933
lowerneck 2.63114 0.616746 -0.490783
upperneck -3.88943 0.728365 -1.80131
head -1.64363 0.40865 -0.493979
rclavicle -2.15681e-014 1.15295e-014
rhumerus -45.5571 -1.84853 -75.7028
rradius 53.6258
rwrist 12.137
rhand -24.8708 -12.9568
rfingers 7.12502
rthumb 1.63633 -42.9302
lclavicle -2.15681e-014 1.15295e-014
lhumerus -34.9864 -1.99835 70.2854
lradius 55.6198
lwrist 28.868
lhand -22.2687 -12.2854
lfingers 7.12502
lthumb 4.14926 17.6539
rfemur -20.8046 -3.75848 15.3222
rtibia 29.5591
rfoot -12.4269 -6.69347
rtoes -19.4041
lfemur -10.9664 -4.6041 -22.1571
ltibia 26.712
lfoot -13.9505 -18.5494
ltoes 34.3812
925
root 5.13589 27.8659 -19.6739 7.07094 3.61245 1.83431
lowerback 2.46509 0.501345 2.07996
upperback 2.24632 0.703546 -0.367902
thorax 0.950842 0.382015 -1.55364
lowerneck 2.71864 0.550388 -0.561271
upperneck -4.109 0.637775 -1.66996
head -1.73076 0.363833 -0.440769
rclavicle -5.96354e-016 9.93923e-015
rhumerus -45.7478 -2.26728 -75.6598
rradius 53.5165
rwrist 11.6684
rhand -24.1282 -13.1947
rfingers 7.12502
rthumb 2.35359 -43.1614
lclavicle -5.96354e-016 9.93923e-015
lhumerus -34.4924 -1.77417 70.2073
lradius 55.5793
lwrist 30.5289
lhand -21.3874 -11.9306
lfingers 7.12502
lthumb 5.0003 17.9904
rfemur -20.3261 -3.14987 15.4091
rtibia 29.4136
rfoot -12.2582 -6.97596
rtoes -19.4355
lfemur -11.137 -4.60572 -21.9792
ltibia 27.4803
lfoot -12.7092 -19.1887
ltoes 36.207
926
root 5.12176 27.8525 -19.7255 6.92909 4.07533 1.91138
lowerback 2.56932 0.477149 2.14596
upperback 2.25554 0.674946 -0.399456
thorax 0.902067 0.36843 -1.62361
lowerneck 2.7565 0.477277 -0.646391
upperneck -4.30909 0.536901 -1.57841
head -1.80299 0.314555 -0.396617
rclavicle -1.11319e-014 1.39149e-014
rhumerus -45.8914 -2.65442 -75.5989
rradius 53.3818
rwrist 11.0484
rhand -23.2217 -13.4401
rfingers 7.12502
rthumb 3.22899 -43.3954
lclavicle -1.11319e-014 1.39149e-014
lhumerus -33.9936 -1.42667 70.1404
lradius 55.6002
lwrist 32.0028
lhand -20.6406 -11.4834
lfingers 7.12502
lthumb 5.72138 18.4194
rfemur -19.9583 -2.64159 15.5466
rtibia 29.5472
rfoot -12.2687 -7.3389
rtoes -19.7225
lfemur -11.4372 -4.52063 -21.739
ltibia 28.4842
lfoot -11.4456 -19.6243
ltoes 37.1706
927
root 5.10979 27.8385 -19.7795 6.77797 4.55008 1.95472
lowerback 2.69854 0.451573 2.26716
upperback 2.27333 0.646056 -0.409182
thorax 0.848467 0.355225 -1.70227
lowerneck 2.76502 0.402189 -0.743423
upperneck -4.51813 0.431614 -1.52126
head -1.87297 0.264044 -0.36077
rclavicle 1.09332e-014 3.97569e-016
rhumerus -45.9852 -2.99397 -75.5301
rradius 53.2345
rwrist 10.2332
rhand -22.1637 -13.68
rfingers 7.12502
rthumb 4.25066 -43.6173
lclavicle 1.09332e-014 3.97569e-016
lhumerus -33.4912 -0.960381 70.0915
lradius 55.6751
lwrist 33.269
lhand -20.052 -10.9275
lfingers 7.12502
lthumb 6.28961 18.9592
rfemur -19.661 -2.3072 15.7249
rtibia 29.7896
rfoot -12.417 -7.7916
rtoes -20.3171
lfemur -11.8698 -4.37467 -21.4468
ltibia 29.7364
lfoot -10.0053 -19.9327
ltoes 37.9826
928
root 5.10066 27.8253 -19.8349 6.62122 5.04391 1.94375
lowerback 2.8284 0.425421 2.46463
upperback 2.29625 0.618109 -0.393245
thorax 0.80039 0.343324 -1.79729
lowerneck 2.799 0.333957 -0.855343
upperneck -4.75679 0.333313 -1.47881
head -1.95722 0.218077 -0.327161
rclavicle 5.86415e-015 1.19271e-014
rhumerus -46.0558 -3.27528 -75.4531
rradius 53.0843
rwrist 9.18294
rhand -20.9824 -13.879
rfingers 7.12502
rthumb 5.39138 -43.7904
lclavicle 5.86415e-015 1.19271e-014
lhumerus -33.0103 -0.402092 70.0682
lradius 55.81
lwrist 34.34
lhand -19.63 -10.2736
lfingers 7.12502
lthumb 6.69704 19.6005
rfemur -19.3799 -2.17245 15.9581
rtibia 29.9971
rfoot -12.6339 -8.27141
rtoes -21.3491
lfemur -12.4367 -4.19875 -21.0897
ltibia 31.2338
lfoot -8.40786 -20.0755
ltoes 38.6589
